<svg xmlns="http://www.w3.org/2000/svg" viewBox="0 0 680 170" font-family="Segoe UI,Arial,sans-serif">
<defs><marker id="a1" markerWidth="9" markerHeight="9" refX="7" refY="3" orient="auto"><path d="M0,0 L7,3 L0,6 Z" fill="#9db8d4"/></marker></defs>
<rect fill="#e6f7ef" stroke="#12805c" stroke-width="1.5" x="10" y="26" width="130" height="40" rx="8"/><text fill="#1b1f24" font-size="11.5" font-weight="700" x="75" y="50" text-anchor="middle">Workday ERP</text>
<rect fill="#eef4fb" stroke="#0f6cbd" stroke-width="1.5" x="185" y="26" width="130" height="40" rx="8"/><text fill="#1b1f24" font-size="11.5" font-weight="700" x="250" y="45" text-anchor="middle">Azure Function</text><text fill="#5b6470" font-size="9.5" font-weight="600" x="250" y="58" text-anchor="middle">SOAP client</text>
<rect fill="#0f6cbd" stroke="#0a4f8a" stroke-width="1.5" x="360" y="26" width="130" height="40" rx="8"/><text fill="#ffffff" font-size="11.5" font-weight="700" x="425" y="50" text-anchor="middle">Dataverse</text>
<rect fill="#eef4fb" stroke="#0f6cbd" stroke-width="1.5" x="535" y="26" width="130" height="40" rx="8"/><text fill="#1b1f24" font-size="11.5" font-weight="700" x="600" y="50" text-anchor="middle">Model-Driven App</text>
<line stroke="#9db8d4" stroke-width="1.8" x1="140" y1="46" x2="182" y2="46" marker-end="url(#a1)"/>
<line stroke="#9db8d4" stroke-width="1.8" x1="315" y1="46" x2="357" y2="46" marker-end="url(#a1)"/>
<line stroke="#9db8d4" stroke-width="1.8" x1="490" y1="46" x2="532" y2="46" marker-end="url(#a1)"/>
<text fill="#5b6470" font-size="9.5" font-weight="600" x="161" y="40" text-anchor="middle">sync</text>
<path fill="none" stroke="#9db8d4" stroke-width="1.8" d="M425,66 L425,110 L360,110" marker-end="url(#a1)"/>
<rect fill="#eef4fb" stroke="#0f6cbd" stroke-width="1.5" x="215" y="112" width="140" height="40" rx="8"/><text fill="#1b1f24" font-size="11.5" font-weight="700" x="285" y="136" text-anchor="middle">Power Pages Portal</text>
<rect fill="#e6f7ef" stroke="#12805c" stroke-width="1.5" x="40" y="112" width="130" height="40" rx="8"/><text fill="#1b1f24" font-size="11.5" font-weight="700" x="105" y="136" text-anchor="middle">Self-Service Users</text>
<line stroke="#9db8d4" stroke-width="1.8" x1="215" y1="132" x2="172" y2="132" marker-end="url(#a1)"/>
</svg>
