<svg xmlns="http://www.w3.org/2000/svg" viewBox="0 0 680 170" font-family="Segoe UI,Arial,sans-serif">
<defs><marker id="a3" markerWidth="9" markerHeight="9" refX="7" refY="3" orient="auto"><path d="M0,0 L7,3 L0,6 Z" fill="#9db8d4"/></marker></defs>
<rect fill="#0f6cbd" stroke="#0a4f8a" stroke-width="1.5" x="20" y="26" width="130" height="40" rx="8"/><text fill="#ffffff" font-size="11.5" font-weight="700" x="85" y="50" text-anchor="middle">Dynamics 365</text>
<rect fill="#eef4fb" stroke="#0f6cbd" stroke-width="1.5" x="195" y="26" width="130" height="40" rx="8"/><text fill="#1b1f24" font-size="11.5" font-weight="700" x="260" y="45" text-anchor="middle">Azure Function</text><text fill="#5b6470" font-size="9.5" font-weight="600" x="260" y="58" text-anchor="middle">PaymentIntent</text>
<rect fill="#e6f7ef" stroke="#12805c" stroke-width="1.5" x="370" y="26" width="130" height="40" rx="8"/><text fill="#1b1f24" font-size="11.5" font-weight="700" x="435" y="50" text-anchor="middle">Stripe API</text>
<line stroke="#9db8d4" stroke-width="1.8" x1="150" y1="46" x2="192" y2="46" marker-end="url(#a3)"/>
<line stroke="#9db8d4" stroke-width="1.8" x1="325" y1="46" x2="367" y2="46" marker-end="url(#a3)"/>
<rect fill="#e6f7ef" stroke="#12805c" stroke-width="1.5" x="370" y="110" width="130" height="40" rx="8"/><text fill="#1b1f24" font-size="11.5" font-weight="700" x="435" y="134" text-anchor="middle">Stripe Webhook</text>
<rect fill="#eef4fb" stroke="#0f6cbd" stroke-width="1.5" x="195" y="110" width="130" height="40" rx="8"/><text fill="#1b1f24" font-size="11.5" font-weight="700" x="260" y="134" text-anchor="middle">Azure Function</text>
<rect fill="#0f6cbd" stroke="#0a4f8a" stroke-width="1.5" x="20" y="110" width="130" height="40" rx="8"/><text fill="#ffffff" font-size="11.5" font-weight="700" x="85" y="134" text-anchor="middle">Invoice Sync</text>
<line stroke="#9db8d4" stroke-width="1.8" x1="370" y1="130" x2="327" y2="130" marker-end="url(#a3)"/>
<line stroke="#9db8d4" stroke-width="1.8" x1="195" y1="130" x2="152" y2="130" marker-end="url(#a3)"/>
<text fill="#5b6470" font-size="9.5" font-weight="600" x="435" y="90" text-anchor="middle">callback</text>
</svg>
